<svg id="visual" viewBox="0 0 900 600" width="900" height="600" xmlns="http://www.w3.org/2000/svg" xmlns:xlink="http://www.w3.org/1999/xlink" version="1.1"><rect x="0" y="0" width="900" height="600" fill="#f94c1b"></rect><path d="M0 412L21.5 414C43 416 86 420 128.8 434.2C171.7 448.3 214.3 472.7 257.2 485.2C300 497.7 343 498.3 385.8 493.2C428.7 488 471.3 477 514.2 463.3C557 449.7 600 433.3 642.8 433.7C685.7 434 728.3 451 771.2 451.3C814 451.7 857 435.3 878.5 427.2L900 419L900 601L878.5 601C857 601 814 601 771.2 601C728.3 601 685.7 601 642.8 601C600 601 557 601 514.2 601C471.3 601 428.7 601 385.8 601C343 601 300 601 257.2 601C214.3 601 171.7 601 128.8 601C86 601 43 601 21.5 601L0 601Z" fill="#FFFFFF" stroke-linecap="round" stroke-linejoin="miter"></path></svg>